<?xml version="1.0" encoding="UTF-8"?>
<svg width="441px" height="267px" viewBox="0 0 441 267" version="1.1" xmlns="http://www.w3.org/2000/svg" xmlns:xlink="http://www.w3.org/1999/xlink">
    <!-- Generator: Sketch 54.1 (76490) - https://sketchapp.com -->
    <title>Job Board - Image</title>
    <desc>Created with Sketch.</desc>
    <g id="UI" stroke="none" stroke-width="1" fill="none" fill-rule="evenodd">
        <g id="Landing-View-1.3" transform="translate(-514.000000, -130.000000)">
            <g id="Job-Board---Image" transform="translate(505.000000, 130.000000)">
                <path d="M381.574766,215.694 C380.277036,216.804 369.714953,217.728 356.341121,218.256 L355.493992,218.292 C330.759012,219.228 297.072096,218.808 294.61482,215.694 C291.460614,211.674 293.443258,175.086 298.820427,161.514 C299.213171,160.423233 299.72493,159.378947 300.346462,158.4 C300.37426,158.349305 300.406424,158.301124 300.44259,158.256 C300.467405,158.210724 300.499935,158.170116 300.538718,158.136 C300.99663,157.380044 301.704118,156.80717 302.539386,156.516 L304.467957,156.3 C305.861816,156.15 307.952603,155.922 310.566088,155.652 C317.427236,154.95 327.887183,153.942 338.749666,153.186 C349.888518,152.412 361.453939,151.89 369.991322,152.202 L371.096796,152.256 L371.240988,152.256 C377.248999,152.55 381.526702,153.3 382.824433,154.728 C383.273291,155.266078 383.630524,155.874186 383.881842,156.528 C388.508011,167.778 385.059413,212.724 381.574766,215.694 Z" id="Path" fill="#FFA400" fill-rule="nonzero"></path>
                <path d="M383.85781,156.534 C383.85781,156.534 377.8498,161.706 370.213618,168.018 L369.342457,168.732 L365.935915,171.51 L363.736983,173.31 C355.596128,179.844 346.950601,186.426 341.933912,189.18 C340.317757,190.068 339.080107,190.56 338.329105,190.518 C337.460217,190.394569 336.620117,190.118295 335.847797,189.702 L335.246996,189.408 C332.620012,188.011593 330.081811,186.454635 327.646862,184.746 C325.844459,183.546 323.987984,182.178 322.065421,180.738 C319.457944,178.788 316.796395,176.688 314.255007,174.582 L314.12283,174.474 C313.630174,174.06 313.137517,173.646 312.656876,173.226 L312.374499,172.98 C311.503338,172.23 310.644192,171.486 309.827103,170.742 C305.681575,167.01 302.335113,163.512 300.917223,161.082 C300.250334,159.936 300.010013,159.018 300.316422,158.436 C300.34422,158.385305 300.376384,158.337124 300.41255,158.292 C300.437365,158.246724 300.469895,158.206116 300.508678,158.172 C301.067423,157.632 302.461282,157.002 304.437917,156.336 C305.831776,156.186 307.922563,155.958 310.536048,155.688 C317.397196,154.986 327.857143,153.978 338.719626,153.222 C349.858478,152.448 361.423899,151.926 369.961282,152.238 L371.066756,152.292 L371.240988,152.292 C377.248999,152.586 381.526702,153.336 382.824433,154.764 C383.261981,155.29465 383.610925,155.892332 383.85781,156.534 Z" id="Path" fill="#F45B05" fill-rule="nonzero"></path>
                <path d="M338.79773,153.204 C327.935247,153.96 317.4753,154.968 310.614152,155.67 C308.000668,155.94 305.90988,156.168 304.516021,156.318 L302.58745,156.534 C301.752182,156.82517 301.044694,157.398044 300.586782,158.154 C300.547999,158.188116 300.515469,158.228724 300.490654,158.274 C300.454488,158.319124 300.422324,158.367305 300.394526,158.418 C299.767928,159.390453 299.250139,160.428674 298.850467,161.514 C293.49733,175.086 291.514686,211.674 294.64486,215.694 C297.102136,218.808 330.789052,219.228 355.524032,218.292 C355.806409,209.676 355.914553,201.702 355.716288,197.34 C355.819373,196.259448 355.700804,195.169252 355.367824,194.136 C355.350628,194.069658 355.322179,194.006748 355.283712,193.95 C354.730975,192.942 346.512016,192.594 335.301068,192.672 C335.487316,191.808 335.691589,190.782 335.901869,189.672 C336.899199,183.858 337.704272,175.668 335.985981,174.432 C334.784379,173.526 324.853138,173.766 314.321095,174.552 C312.61482,174.672 310.896529,174.81 309.20227,174.96 C309.266884,174.568481 309.407724,174.193409 309.616822,173.856 C309.833111,173.592 310.944593,173.376 312.722964,173.196 C324.138184,172.032 362.985981,172.338 365.281041,170.946 C367.197597,169.788 369.114152,158.436 370.033378,152.208 C361.471963,151.908 349.906542,152.43 338.79773,153.204 Z M322.095461,180.72 C324.720961,180.69 326.571429,180.756 326.949933,180.948 C327.328438,181.14 327.610814,182.676 327.676903,184.728 C327.761015,187.068 327.676903,190.128 327.514686,192.792 C321.386515,192.918 314.777704,193.14 308.259012,193.434 C308.20494,190.086 308.259012,185.358 308.487316,181.368 C313.275701,181.008 318.44259,180.768 322.095461,180.72 Z" id="Shape" fill="#000000" fill-rule="nonzero" opacity="0.3" style="mix-blend-mode: overlay;"></path>
                <path d="M363.875167,115.758 L350.212951,143.4 L346.722296,150.45 L310.77036,151.8 L287.224967,152.7 L281.727637,152.91 L277.113485,153.084 L276.969292,123 L276.969292,115.74 C276.969292,115.74 282.166222,111.234 288.690921,105.864 C296.303071,99.6 305.753672,92.118 310.746328,89.4 C312.008011,88.692 312.993324,88.296 313.582109,88.296 C318.184246,88.296 358.167557,112.338 363.328438,115.458 L363.863151,115.782 C363.863151,115.782 363.875167,115.758 363.875167,115.758 Z" id="Path" fill="#AAAAAA" fill-rule="nonzero"></path>
                <path d="M285.79506,110.13 C285.79506,110.13 343.748331,105.33 347.773698,107.73 C351.799065,110.13 350.176903,153.552 349.383845,154.356 C348.590788,155.16 282.574766,158.376 281.769693,155.964 C280.964619,153.552 285.79506,110.13 285.79506,110.13 Z" id="Path" fill="#FCFBFE" fill-rule="nonzero"></path>
                <path d="M361.459947,165.6 C359.657543,167.4 332.945928,167.688 310.037383,167.592 C301.295728,167.55 293.106809,167.454 287.06275,167.37 C280.880507,167.28 276.939252,167.208 276.939252,167.208 L276.939252,123 L276.939252,123 C277.269693,123.222 280.033378,125.076 283.908545,127.542 C285.002003,128.232 286.191589,128.976 287.435247,129.744 C295.684246,134.85 306.504673,141.042 311.076769,141.444 L311.521362,141.444 C316.273698,141.444 336.268358,128.646 350.140854,120.972 C356.443258,117.498 361.471963,115.068 363.256342,115.374 C363.499258,115.392471 363.720467,115.520601 363.857143,115.722 C366.284379,119.778 364.674232,162.384 361.459947,165.6 Z" id="Path" fill="#E2E2E2" fill-rule="nonzero"></path>
                <path d="M293.971963,119.136 C293.971963,119.136 335.697597,115.278 336.664887,117.786 C337.632176,120.294 336.47263,121.452 335.313084,121.452 C334.153538,121.452 291.845127,123.198 291.845127,123.198 L293.971963,119.136 Z" id="Path" fill="#F45B05" fill-rule="nonzero"></path>
                <path d="M293.779706,128.442 C294.380507,128.01 325.075434,124.728 325.844459,126.468 C326.613485,128.208 326.44526,129.552 325.844459,129.744 C325.243658,129.936 293.779706,130.71 293.779706,130.71 L293.779706,128.442 Z" id="Path" fill="#2F2E2E" fill-rule="nonzero"></path>
                <path d="M142.82243,178.572 C140.851802,199.95 139.28972,216.246 139.28972,216.246 C139.28972,216.246 129.268358,216.492 119.703605,216.576 C112.133511,216.636 104.845794,216.576 103.067423,216.246 C99.0420561,215.442 74.0907877,200.166 71.6755674,193.734 C71.5593622,193.36486 71.4808582,192.984925 71.441255,192.6 L71.441255,192.6 C69.5847797,179.658 73.3878505,85.038 75.7189586,80.4 C77.1668892,77.514 103.127503,76.356 124.089453,76.584 C131.899866,76.662 139.049399,76.938 143.915888,77.394 C147.803071,77.748 150.266355,78.222 150.55474,78.792 C151.606142,80.88 146.50534,138.6 142.82243,178.572 Z" id="Path" fill="#F2F2F2" fill-rule="nonzero"></path>
                <path d="M103.067423,216.246 C99.0420561,215.442 74.0907877,200.166 71.6755674,193.734 C71.5593622,193.36486 71.4808582,192.984925 71.441255,192.6 L71.441255,192.6 C72,190.644 100.670227,189.726 102.280374,191.334 C103.890521,192.942 103.067423,216.246 103.067423,216.246 Z" id="Path" fill="#E2E2E2" fill-rule="nonzero"></path>
                <path d="M87.771028,92.61 C87.771028,92.61 86.1608812,96.768 87.771028,96.768 C89.3811749,96.768 136.069426,98.568 137.679573,97.968 C139.28972,97.368 140.082777,94.41 137.679573,93.816 C135.276368,93.222 87.771028,92.61 87.771028,92.61 Z" id="Path" fill="#2F2E2E" fill-rule="nonzero"></path>
                <path d="M87.8190921,109.032 C87.8190921,109.032 86.1068091,113.442 87.8190921,113.442 C89.5313752,113.442 139.085447,115.332 140.79773,114.702 C142.510013,114.072 143.357143,110.922 140.79773,110.292 C138.238318,109.662 87.8190921,109.032 87.8190921,109.032 Z" id="Path" fill="#2F2E2E" fill-rule="nonzero"></path>
                <path d="M86.9659546,127.2 C86.9659546,127.2 85.3558077,131.358 86.9659546,131.358 C88.5761015,131.358 135.264352,133.158 136.874499,132.558 C138.484646,131.958 139.277704,128.994 136.874499,128.4 C134.471295,127.806 86.9659546,127.2 86.9659546,127.2 Z" id="Path" fill="#2F2E2E" fill-rule="nonzero"></path>
                <path d="M86.9659546,146.472 C86.9659546,146.472 85.3558077,150.624 86.9659546,150.624 C88.5761015,150.624 135.264352,152.424 136.874499,151.824 C138.484646,151.224 139.277704,148.266 136.874499,147.672 C134.471295,147.078 86.9659546,146.472 86.9659546,146.472 Z" id="Path" fill="#2F2E2E" fill-rule="nonzero"></path>
                <path d="M84.5507343,168.174 C84.5507343,168.174 82.9405874,172.332 84.5507343,172.332 C86.1608812,172.332 132.849132,174.132 134.459279,173.532 C136.069426,172.932 136.862483,169.968 134.459279,169.374 C132.056075,168.78 84.5507343,168.174 84.5507343,168.174 Z" id="Path" fill="#2F2E2E" fill-rule="nonzero"></path>
                <path d="M143.921896,77.4 L142.82243,178.59 C140.851802,199.968 139.28972,216.264 139.28972,216.264 C139.28972,216.264 129.268358,216.51 119.703605,216.594 C118.772363,202.26 118.435915,187.65 118.502003,173.424 C118.502003,171.864 118.502003,170.31 118.538051,168.762 C118.59012,162.966 118.704272,157.266 118.880507,151.662 C118.928571,150.102 118.988652,148.56 119.042724,147.018 C119.222964,142.014 119.435247,137.14 119.679573,132.396 C119.755674,130.824 119.839786,129.274 119.931909,127.746 C120.184246,123.174 120.460614,118.746 120.748999,114.546 C120.869159,112.872 120.983311,111.234 121.103471,109.626 C121.403872,105.504 121.704272,101.586 122.040721,97.896 C122.172897,96.294 122.311081,94.746 122.443258,93.24 C123.044059,86.754 123.590788,81.144 124.077437,76.62 C131.899866,76.65 139.031375,76.926 143.921896,77.4 Z" id="Path" fill="#000000" fill-rule="nonzero" opacity="0.6" style="mix-blend-mode: overlay;"></path>
                <path d="M311.395194,117.75 C311.395194,119.304 311.395194,120.846 311.395194,122.388 L311.395194,122.688 C311.395194,123.968 311.395194,125.242 311.395194,126.51 L311.395194,127.35 C311.395194,128.322 311.365154,129.288 311.34713,130.254 C311.311081,134.034 311.226969,137.772 311.130841,141.462 C311.130841,142.452 311.082777,143.454 311.052737,144.462 C311.004673,146.022 310.944593,147.57 310.890521,149.112 C310.890521,150.018 310.824433,150.912 310.794393,151.818 C310.74032,153.402 310.674232,154.98 310.608144,156.534 C310.495995,158.966 310.383845,161.366 310.271696,163.734 C310.20761,165.042 310.137517,166.332 310.061415,167.604 L310.061415,167.604 C301.31976,167.562 293.130841,167.466 287.086782,167.382 L287.200935,156.75 L287.200935,156.75 L287.248999,152.724 L287.489319,129.786 L287.489319,129.786 L287.621495,117.54 C287.855808,114.936 288.09012,112.398 288.306409,109.956 C288.432577,108.57 288.552737,107.226 288.678905,105.906 C296.303071,99.6 305.753672,92.118 310.746328,89.4 C311.034713,95.694 311.220961,102 311.34713,108.294 L311.34713,108.294 C311.371162,111.45 311.395194,114.6 311.395194,117.75 Z" id="Path" fill="#000000" fill-rule="nonzero" opacity="0.6" style="mix-blend-mode: overlay;"></path>
                <path d="M301.079439,173.868 C301.079439,174.51 301.043391,175.146 301.025367,175.782 C300.989319,177.252 300.947263,178.71 300.899199,180.168 C300.899199,180.768 300.857143,181.326 300.839119,181.908 C300.730975,185.394 300.610814,188.826 300.478638,192.156 C300.478638,192.618 300.436582,193.086 300.424566,193.548 C299.222964,223.014 297.27036,245.22 294.64486,246.792 C292.175567,248.28 276.320427,249.99 255.304406,251.466 C207.955274,254.772 134.405207,256.866 128.829773,252.42 C128.775811,252.387148 128.730493,252.34189 128.697597,252.288 C128.624874,252.2153 128.560399,252.134813 128.50534,252.048 C127.303738,250.194 126.498665,243.588 126.042056,233.784 C126.042056,233.652 126.042056,233.502 126.042056,233.364 L126.042056,233.364 C123.753004,182.532 130.247664,48.186 132.88518,44.214 C138.53271,35.7 291.424566,28.938 297.865154,36.18 C301.758344,40.548 302.713618,114.744 301.079439,173.868 Z" id="Path" fill="#E2E2E2" fill-rule="nonzero"></path>
                <path d="M138.484646,53.862 C141.062083,50.772 286.600134,41.802 291.424566,45.822 C296.248999,49.842 294.64486,237.144 290.619493,240.36 C286.594126,243.576 144.925234,246.792 138.484646,241.968 C132.044059,237.144 134.459279,58.686 138.484646,53.862 Z" id="Path" fill="#FCFBFE" fill-rule="nonzero"></path>
                <g id="Group" opacity="0.1" transform="translate(206.074766, 61.800000)" fill="#1B00B0" fill-rule="nonzero">
                    <path d="M75.9833111,77.4 C75.2309543,77.6791709 74.4518119,77.8802312 73.6582109,78 C72.3424566,78.222 70.6542056,78.432 68.635514,78.6 C65.9619493,78.846 62.7476636,79.044 59.1969292,79.2 C57.394526,79.278 55.4779706,79.332 53.5193591,79.398 C50.3771696,79.488 47.0907877,79.542 43.7503338,79.572 C42.8851802,79.572 42.0080107,79.572 41.1308411,79.572 L36.7570093,79.572 C34.0053405,79.572 31.2777036,79.536 28.6281709,79.488 C26.6575434,79.452 24.722964,79.404 22.8724967,79.344 C19.4659546,79.236 16.2636849,79.098 13.493992,78.912 C10.8684913,78.75 8.57343124,78.54 6.73497997,78.312 C4.60814419,78.048 3.0941255,77.742 2.37917223,77.382 C-2.73965287,74.826 1.39385848,8.772 7.28771696,4.854 C13.1815754,0.936 72.0540721,-2.01 75.9833111,1.914 C79.9125501,5.838 82.8564753,74.436 75.9833111,77.4 Z" id="Path"></path>
                </g>
                <path d="M165.052069,45 C165.052069,40.98 171.486649,29.724 208.514019,31.332 C208.514019,31.332 200.469292,22.488 200.469292,15.258 C200.469292,8.028 205.263685,0 216.96729,0 C228.670895,0 235.081442,8.04 235.081442,14.472 C235.081442,20.904 227.048732,31.35 227.048732,31.35 C227.048732,31.35 268.888518,25.722 268.888518,40.2 C268.888518,54.678 239.106809,53.868 215.75968,54.672 C192.41255,55.476 165.052069,59.49 165.052069,45 Z" id="Path" fill="#AAAAAA" fill-rule="nonzero"></path>
                <path d="M208.423899,13.8 C208.315754,9.684 210.226302,6.54 217.213618,6.366 C224.200935,6.192 226.26769,9.228 226.375834,13.344 C226.483979,17.46 223.239653,21.744 217.610147,21.816 C211.980641,21.888 208.604139,19.998 208.423899,13.8 Z" id="Path" fill="#FCFBFE" fill-rule="nonzero"></path>
                <path d="M147.568758,79.164 C146.919893,77.598 145.622163,72.912 147.568758,71.364 C149.515354,69.816 195.632844,66.678 196.233645,69.024 C196.834446,71.37 196.233645,76.056 194.935915,76.824 C193.638184,77.592 148.217623,80.724 147.568758,79.164 Z" id="Path" fill="#FFA400" fill-rule="nonzero"></path>
                <path d="M148.217623,90.102 C149.022697,88.65 194.965955,85.416 196.281709,87.756 C197.597463,90.096 196.930574,92.448 195.632844,93.228 C194.335113,94.008 148.884513,96.354 148.235648,95.574 C147.586782,94.794 146.919893,92.448 148.217623,90.102 Z" id="Path" fill="#FFA400" fill-rule="nonzero"></path>
                <path d="M145.514019,140.268 C146.319092,138.816 192.26235,135.582 193.578104,137.928 C194.893858,140.274 194.226969,142.614 192.929239,143.394 C191.631509,144.174 146.180908,146.52 145.532043,145.74 C144.883178,144.96 144.216288,142.614 145.514019,140.268 Z" id="Path" fill="#FFA400" fill-rule="nonzero"></path>
                <path d="M146.072764,112.674 C146.072764,112.674 144.979306,107.16 146.337116,105.648 C147.694927,104.136 191.337116,101.07 192.550734,103.458 C193.764352,105.846 193.614152,109.752 192.286382,110.484 C190.958611,111.216 146.018692,114.234 146.072764,112.674 Z" id="Path" fill="#FFA400" fill-rule="nonzero"></path>
                <path d="M145.622163,128.4 C144.751001,126.6 144.420561,121.368 145.622163,120.6 C146.823765,119.832 190.321762,120.096 191.066756,121.38 C191.811749,122.664 192.370494,128.226 191.066756,129.18 C189.763017,130.134 146.487316,130.2 145.622163,128.4 Z" id="Path" fill="#FFA400" fill-rule="nonzero"></path>
                <path d="M144.859146,166.584 C142.383845,164.334 141.88518,159.51 142.924566,158.55 C143.963952,157.59 283.457944,156.12 285.080107,156.942 C286.70227,157.764 286.588117,162.114 285.080107,163.374 C283.572096,164.634 147.334446,168.84 144.859146,166.584 Z" id="Path" fill="#FFA400" fill-rule="nonzero"></path>
                <path d="M206.495327,186 C205.239653,185.304 205.293725,177.63 206.495327,176.352 C207.696929,175.074 260.008678,174.522 262.039386,176.352 C264.070093,178.182 262.640187,183.654 261.264352,184.392 C259.888518,185.13 207.751001,186.678 206.495327,186 Z" id="Path" fill="#FFA400" fill-rule="nonzero"></path>
                <path d="M209.0247,201.9 C208.670227,200.952 207.258344,197.766 208.574099,196.272 C209.889853,194.778 245.703605,194.412 247.217623,195.468 C248.731642,196.524 248.503338,199.23 247.217623,200.268 C245.931909,201.306 209.391188,202.848 209.0247,201.9 Z" id="Path" fill="#FFA400" fill-rule="nonzero"></path>
                <path d="M208.375834,229.62 C207.342457,227.562 208.856475,216.672 209.979973,215.148 C211.103471,213.624 226.502003,213.534 227.691589,215.148 C228.881175,216.762 227.337116,228.684 226.081442,229.62 C224.825768,230.556 209.403204,231.678 208.375834,229.62 Z" id="Path" fill="#1B00B0" fill-rule="nonzero"></path>
                <path d="M196.347797,194.202 C188.465287,182.838 175.079439,175.542 156.094126,188.958 C137.108812,202.374 144.678905,226.158 144.678905,226.158 C144.678905,226.158 142.047397,227.574 137.913885,229.842 C137.180908,229.104 136.604139,228.642 136.339786,228.642 C136.261189,228.654235 136.184471,228.676414 136.111482,228.708 C135.132176,229.068 131.251001,231.018 126.036048,233.772 C126.498665,243.6 127.315754,250.2 128.517356,252.048 C128.572415,252.134813 128.63689,252.2153 128.709613,252.288 C134.717623,248.496 139.896529,245.088 142.70227,243.006 C144.018024,242.034 144.811081,241.356 144.90721,241.074 C145.002473,240.371616 144.865343,239.657381 144.516689,239.04 L149.485314,235.794 L151.329773,234.594 C154.832443,237.222 174.082109,243.792 189.354473,234.438 C204.626836,225.084 204.218291,205.572 196.347797,194.202 Z M184.53004,228.48 C174.316422,235.434 159.470628,233.148 152.915888,223.848 C146.361148,214.548 149.022697,200.7 160.059413,193.728 C171.096128,186.756 181.033378,187.764 189.624833,197.208 C198.216288,206.652 194.725634,221.526 184.53004,228.48 Z" id="Shape" fill="#000000" fill-rule="nonzero" opacity="0.2" style="mix-blend-mode: multiply;"></path>
                <path d="M234.132176,230.4 C233.230975,229.854 232.233645,218.832 234.132176,217.536 C236.030708,216.24 244.598131,216.732 246.208278,217.536 C247.818425,218.34 247.013351,228.792 246.208278,230.4 C245.403204,232.008 235.033378,231 234.132176,230.4 Z" id="Path" fill="#F45B05" fill-rule="nonzero"></path>
                <path d="M195.542724,188.046 C187.660214,176.646 174.274366,169.386 155.289052,182.802 C136.303738,196.218 143.873832,220.002 143.873832,220.002 C143.873832,220.002 87.188251,250.518 87.2663551,254.424 C87.3444593,258.33 90.024032,263.646 93.5206943,263.646 C97.0173565,263.646 150.506676,228.414 150.506676,228.414 C154.009346,231.042 173.259012,237.606 188.531375,228.258 C203.803738,218.91 203.419226,199.41 195.542724,188.046 Z M183.724967,222.324 C173.511348,229.266 158.665554,226.986 152.110814,217.692 C145.556075,208.398 148.217623,194.538 159.254339,187.572 C170.291055,180.606 180.228304,181.608 188.81976,191.052 C197.411215,200.496 193.920561,215.4 183.724967,222.324 Z" id="Shape" fill="#F45B05" fill-rule="nonzero"></path>
                <path d="M60.3925234,238.368 C58.9566088,238.08 55.8024032,226.968 56.9439252,224.292 C58.0854473,221.616 71.2369826,217.536 72.3244326,218.97 C73.4118825,220.404 77.1308411,233.25 75.4245661,235.566 C73.7182911,237.882 61.8284379,238.656 60.3925234,238.368 Z" id="Path" fill="#006572" fill-rule="nonzero"></path>
                <path d="M58.6742323,211.002 C57.8030708,209.568 59.2329773,201.78 60.8671562,201.48 C62.5013351,201.18 69.194259,203.31 69.5186916,203.952 C69.8431242,204.594 70.4078772,210.186 69.5186916,210.96 C68.629506,211.734 59.5514019,212.442 58.6742323,211.002 Z" id="Path" fill="#006572" fill-rule="nonzero"></path>
                <path d="M82.5560748,221.148 C84.0100134,219.276 90.6188251,220.464 91.706275,221.898 C92.793725,223.332 91.9465955,227.574 91.3037383,228.498 C90.6608812,229.422 85.1214953,230.466 84.1842457,229.824 C83.246996,229.182 81.1081442,223.02 82.5560748,221.148 Z" id="Path" fill="#006572" fill-rule="nonzero"></path>
                <path d="M389.865821,91.842 C391.223632,92.388 392.269025,103.896 390.670895,106.308 C389.072764,108.72 375.374499,110.328 374.569426,108.708 C373.764352,107.088 372.478638,93.792 374.569426,91.83 C376.660214,89.868 388.502003,91.296 389.865821,91.842 Z" id="Path" fill="#006572" fill-rule="nonzero"></path>
                <path d="M386.519359,119.052 C387.12016,120.63 384.272363,128.016 382.614152,128.016 C380.955941,128.016 374.761682,124.686 374.563418,123.996 C374.365154,123.306 374.833778,117.708 375.831108,117.108 C376.828438,116.508 385.918558,117.474 386.519359,119.052 Z" id="Path" fill="#006572" fill-rule="nonzero"></path>
                <path d="M364.902537,104.7 C363.100134,106.278 356.851802,103.896 356.046729,102.3 C355.241656,100.704 356.851802,96.672 357.656876,95.868 C358.461949,95.064 364.097463,95.064 364.902537,95.868 C365.70761,96.672 366.6749,103.128 364.902537,104.7 Z" id="Path" fill="#006572" fill-rule="nonzero"></path>
                <path d="M59.8518024,103.29 C58.4339119,104.19 31.4519359,104.544 30.0640854,101.682 C28.676235,98.82 34.0774366,90.012 35.6995995,89.628 C37.3217623,89.244 61.1795728,98.574 61.1795728,100.086 C61.1795728,101.598 61.2636849,102.396 59.8518024,103.29 Z" id="Path" fill="#00A860" fill-rule="nonzero"></path>
                <path d="M56.1809079,114.546 C55.664219,113.658 12.2623498,112.554 9.91922563,114.546 C7.57610147,116.538 10.0093458,132 13.1635514,133.038 C16.317757,134.076 55.7843792,119.628 56.6315087,118.566 C57.4786382,117.504 56.6915888,115.434 56.1809079,114.546 Z" id="Path" fill="#00A860" fill-rule="nonzero"></path>
                <path d="M53.417223,129 C51.771028,129.642 30.0700935,144 30.0700935,145.878 C30.0700935,147.756 42.4706275,153.372 44.5614152,152.31 C46.6522029,151.248 56.6375167,131.412 56.6375167,130.608 C56.6375167,129.804 55.0514019,128.4 53.417223,129 Z" id="Path" fill="#00A860" fill-rule="nonzero"></path>
                <path d="M280.051402,179.052 C278.086782,181.176 279.450601,191.466 279.901202,194.652 C267.993324,195.432 259.167557,196.338 258.272363,197.154 C257.998671,197.436022 257.805721,197.786184 257.713618,198.168 C256.211615,202.158 255.388518,245.352 255.280374,251.49 C276.308411,250.014 292.151535,248.304 294.620828,246.816 C297.246328,245.244 299.192924,223.038 300.400534,193.572 C296.477303,193.74 292.59012,193.926 288.871162,194.13 C288.450601,190.14 288.018024,184.848 288.558745,183.792 C288.93725,183.078 294.416555,182.412 300.815087,181.932 C300.815087,181.332 300.857143,180.774 300.875167,180.192 C300.923231,178.734 300.965287,177.276 301.001335,175.806 C290.511348,176.688 281.066756,177.948 280.051402,179.052 Z" id="Path" fill="#000000" fill-rule="nonzero" opacity="0.2" style="mix-blend-mode: multiply;"></path>
                <path d="M398.817757,198.462 C400.235648,197.562 427.217623,197.214 428.599466,200.07 C429.981308,202.926 424.592123,211.74 422.963952,212.124 C421.335781,212.508 397.489987,203.178 397.489987,201.666 C397.489987,200.154 397.399866,199.356 398.817757,198.462 Z" id="Path" fill="#00A860" fill-rule="nonzero"></path>
                <path d="M402.482644,187.2 C402.999332,188.088 446.401202,189.192 448.744326,187.2 C451.08745,185.208 448.678238,169.77 445.524032,168.708 C442.369826,167.646 402.867156,182.118 402.056075,183.18 C401.244993,184.242 401.971963,186.318 402.482644,187.2 Z" id="Path" fill="#00A860" fill-rule="nonzero"></path>
                <path d="M405.258344,172.734 C406.898531,172.092 428.599466,157.734 428.599466,155.856 C428.599466,153.978 416.20494,148.362 414.114152,149.4 C412.023364,150.438 402.038051,170.298 402.038051,171.102 C402.038051,171.906 403.618158,173.4 405.258344,172.734 Z" id="Path" fill="#00A860" fill-rule="nonzero"></path>
                <path d="M260.03271,254.832 C260.03271,254.832 260.837784,201.774 262.435915,199.362 C264.034045,196.95 349.371829,192.93 350.981976,195.342 C352.592123,197.754 350.176903,254.028 348.578772,254.832 C346.980641,255.636 262.447931,257.244 260.03271,254.832 Z" id="Path" fill="#3D3D3D" fill-rule="nonzero"></path>
                <path d="M283.37984,196.95 C283.37984,196.95 281.186916,182.64 283.37984,180.072 C285.572764,177.504 329.004673,174.12 331.67223,176.052 C334.339786,177.984 330.873164,196.95 330.068091,196.95 C329.263017,196.95 322.82243,200.166 322.82243,200.166 C322.82243,200.166 324.27036,183.288 322.660214,182.484 C321.050067,181.68 292.265688,183.126 291.418558,184.884 C290.571429,186.642 292.223632,200.154 292.223632,200.154 L283.37984,196.95 Z" id="Path" fill="#2F2E2E" fill-rule="nonzero"></path>
                <path d="M262.868491,198.552 C260.158879,201.3 266.713618,216.096 269.164887,218.082 C271.616155,220.068 342.576769,218.316 345.634846,216.744 C348.692924,215.172 352.844459,198.606 350.993992,195.342 C349.143525,192.078 265.578104,195.798 262.868491,198.552 Z" id="Path" fill="#2F2E2E" fill-rule="nonzero"></path>
                <path d="M287.405207,214.638 C286.401869,215.838 285.867156,220.692 286.600134,221.874 C287.333111,223.056 324.450601,222.678 325.23765,221.874 C326.0247,221.07 325.904539,214.236 325.23765,213.834 C324.570761,213.432 288.402537,213.456 287.405207,214.638 Z" id="Path" fill="#F2F2F2" fill-rule="nonzero"></path>
                <path d="M135.540721,222.498 C136.796395,222.498 144.90721,232.602 144.09012,234.918 C143.273031,237.234 95.5514019,266.466 92.9439252,266.466 C90.3364486,266.466 83.3791722,258.066 83.9619493,253.44 C84.5447263,248.814 134.285047,222.498 135.540721,222.498 Z" id="Path" fill="#2F2E2E" fill-rule="nonzero"></path>
                <g id="Group" transform="translate(0.546729, 0.000000)"></g>
                <path d="M230.124833,141.18 C230.124833,141.18 230.172897,132.18 238.848465,132.18 C247.524032,132.18 255.316422,132.138 255.316422,132.138 C255.316422,132.138 263.156876,132.792 263.571429,141.042 L247.385848,141.366 L230.124833,141.18 Z" id="Path" fill="#FFA400" fill-rule="nonzero"></path>
                <path d="M252.835113,129 C251.591455,127.35 250.768358,122.808 250.768358,122.808 L243.336449,122.808 C243.336449,122.808 242.507343,127.35 241.269693,129 C240.032043,130.65 237.136182,133.944 247.049399,134.772 C256.962617,133.95 254.08478,130.65 252.835113,129 Z" id="Path" fill="#8F4C22" fill-rule="nonzero"></path>
                <path d="M255.773031,120.954 C256.375396,121.503461 257.230216,121.680382 258.001627,121.41525 C258.773038,121.150118 259.337781,120.485298 259.473965,119.682 C260.330009,119.861952 261.219088,119.597044 261.836453,118.97808 C262.453818,118.359116 262.71559,117.47019 262.532043,116.616 C263.383181,116.827646 264.282177,116.55939 264.87753,115.916117 C265.472883,115.272845 265.670017,114.356742 265.391856,113.526 C266.104582,113.311236 266.694665,112.808183 267.018894,112.138926 C267.343123,111.46967 267.37186,110.69539 267.098131,110.004 C267.987839,109.812426 268.692837,109.135345 268.919264,108.254982 C269.145691,107.374619 268.854689,106.442052 268.167557,105.846 C269.076138,105.505557 269.709578,104.675994 269.797898,103.710882 C269.886218,102.745769 269.413845,101.81528 268.582109,101.316 C269.514381,100.982892 270.126513,100.088939 270.099171,99.1004906 C270.071829,98.1120424 269.411214,97.2532008 268.461949,96.972 C269.240758,96.1805124 269.601299,95.0692145 269.435247,93.972 C269.418183,93.7016387 269.29773,93.4481665 269.098798,93.264 C268.799879,93.098918 268.447279,93.0600325 268.119493,93.156 C267.728972,93.222 267.362483,93.306 266.971963,93.366 C267.536523,92.488756 267.532504,91.362175 266.961698,90.4889708 C266.390893,89.6157666 265.359766,89.1588067 264.328438,89.322 C265.031375,88.332 265.758344,87.024 265.127503,85.986 C264.610814,85.146 263.451268,84.972 262.471963,85.116 C262.877101,84.344921 262.708084,83.3977378 262.06117,82.8138884 C261.414256,82.230039 260.453596,82.1576713 259.726302,82.638 C260.056742,81.816 259.305741,80.838 258.434579,80.712 C257.542085,80.6432192 256.664102,80.9676397 256.031375,81.6 C256.16383,80.5518605 255.614676,79.5355055 254.664725,79.0706499 C253.714773,78.6057943 252.57401,78.7951943 251.825768,79.542 C251.309803,78.7699152 250.584691,78.1602187 249.73498,77.784 C248.858334,77.4223712 247.849107,77.6397107 247.199599,78.33 C245.805801,77.6211858 244.120765,77.8276775 242.93992,78.852 C241.978638,78.102 240.58478,78.462 239.431242,78.852 C239.070761,78.978 238.626168,79.242 238.728304,79.608 C237.902417,79.6044898 237.084555,79.7698861 236.3251,80.094 C235.56175,80.4328892 235.056609,81.1744787 235.021362,82.008 C234.195733,81.9702239 233.394686,82.294044 232.827839,82.8947227 C232.260993,83.4954014 231.984761,84.3131575 232.071429,85.134 C231.225326,84.7952784 230.257848,85.0082966 229.632812,85.6709321 C229.007776,86.3335676 228.852592,87.3107458 229.241656,88.134 C228.287399,88.0454796 227.385637,88.5843592 227.012684,89.466 C226.60602,90.2988564 226.810596,91.3006793 227.511348,91.908 L227.463284,91.908 C226.570684,92.1856736 225.821018,92.7988054 225.372497,93.618 C224.940724,94.4826306 225.256409,95.5335084 226.093458,96.018 C225.255961,96.2958349 224.642758,97.0158571 224.502593,97.885989 C224.362428,98.756121 224.718578,99.6318747 225.426569,100.158 C224.606675,100.664489 224.137388,101.584754 224.209397,102.544855 C224.281406,103.504955 224.882729,104.345137 225.769025,104.724 C225.178845,105.361446 224.858115,106.201971 224.873832,107.07 C224.919318,107.954878 225.577918,108.687625 226.453939,108.828 C226.173217,110.563917 227.189294,112.248356 228.857143,112.812 C228.524477,113.804223 228.837232,114.898596 229.644192,115.566 C230.172897,115.992 230.881842,116.202 231.284379,116.766 C231.686916,117.33 231.692924,117.966 232.161549,118.32 C232.607694,118.569961 233.117121,118.684638 233.627503,118.65 C234.147169,118.620061 234.637882,118.89076 234.889186,119.346 C235.255406,120.320838 236.265871,120.896036 237.29239,120.714 C240.626836,120.036 243.931242,120.366 247.331776,120.36 C248.052429,120.378075 248.773423,120.341973 249.488652,120.252 C249.951268,120.186 250.401869,120.072 250.858478,120 C251.968594,119.862956 253.08963,119.836826 254.20494,119.922 C254.574359,119.906474 254.942383,119.976285 255.280374,120.126 C255.619017,120.252098 255.82404,120.596678 255.773031,120.954 L255.773031,120.954 Z" id="Path" fill="#2F2E2E" fill-rule="nonzero"></path>
                <path d="M246.875167,125.082 C246.875167,125.082 236.240988,123 235.279706,117.246 C235.038316,115.884312 234.899741,114.506431 234.865154,113.124 C234.865154,113.124 229.5,109.824 232.389853,106.11 C232.588117,106.5 232.906542,106.974 233.333111,107.064 C233.75968,107.154 234.276368,106.83 234.228304,106.392 C234.604172,106.628808 235.100637,106.522184 235.345794,106.152 C235.561699,105.791552 235.644587,105.36705 235.580107,104.952 C235.50142,104.530508 235.461202,104.102753 235.459947,103.674 C236.125089,103.900878 236.860868,103.67416 237.28237,103.11245 C237.703873,102.55074 237.715195,101.781845 237.310414,101.208 C237.803508,100.815735 237.97322,100.142705 237.724967,99.564 C238.147611,99.9546971 238.736273,100.111579 239.297643,99.9831286 C239.859014,99.8546778 240.320557,99.4574911 240.530708,98.922 C240.831651,99.7588269 241.571206,100.360917 242.452604,100.486663 C243.334002,100.612409 244.212786,100.241202 244.736315,99.522 C245.417287,100.24726 246.429786,100.561803 247.402552,100.350294 C248.375318,100.138784 249.165229,99.4323404 249.482644,98.49 C250.058946,99.2594524 250.978443,99.6951911 251.939741,99.6543904 C252.90104,99.6135897 253.7802,99.10151 254.289052,98.286 C254.924375,98.5945516 255.666412,98.5945516 256.301736,98.286 C256.17254,98.4855917 256.134747,98.7307491 256.19785,98.9599056 C256.260952,99.1890621 256.418954,99.3804478 256.632176,99.486 C257.058971,99.6791777 257.532358,99.7458217 257.995995,99.678 C257.581442,99.93 257.094793,100.212 256.68024,100.482 C256.265688,100.752 255.935247,101.028 255.977303,101.442 C256.057105,101.739749 256.248572,101.995414 256.512016,102.156 C256.361829,102.461624 256.348699,102.816573 256.475898,103.13243 C256.603098,103.448288 256.858652,103.695322 257.178905,103.812 C257.317038,103.841368 257.449118,103.894129 257.569426,103.968 C257.679762,104.075824 257.744304,104.221925 257.749666,104.376 C257.749666,104.898 257.40721,105.498 257.749666,105.894 C257.92597,106.068313 258.16912,106.158005 258.416555,106.14 C258.831569,106.132695 259.232668,105.989335 259.558077,105.732 L259.558077,109.14 C259.558077,110.706 259.353805,112.272 259.335781,113.838 C259.356462,114.92579 259.255706,116.012495 259.035381,117.078 C258.814749,117.995282 258.430072,118.86524 257.899866,119.646 C256.457944,121.77 254.078772,123.054 251.711615,124.062 C250.197597,124.704 248.581442,125.262 246.941255,125.112 C246.929239,125.016 246.875167,125.142 246.875167,125.082 Z" id="Path" fill="#955321" fill-rule="nonzero"></path>
                <path d="M242.669559,117.342 L251.495327,117.288 C251.495327,117.288 251.104806,120.966 246.887183,121.008 C242.669559,121.05 242.669559,117.342 242.669559,117.342 Z" id="Path" fill="#FFFFFF" fill-rule="nonzero"></path>
                <path d="M240.326435,130.362 C240.326435,130.362 238.908545,134.31 246.256342,134.502 C254.066756,134.706 254.066756,132.192 254.066756,131.04 L255.298398,132.192 C255.298398,132.192 255.712951,136.428 246.658879,136.428 C237.604806,136.428 238.848465,132.192 238.848465,132.192 L240.326435,130.362 Z" id="Path" fill="#F45B05" fill-rule="nonzero"></path>
            </g>
        </g>
    </g>
</svg>